<svg width="463" height="553" viewBox="0 0 463 553" fill="none" xmlns="http://www.w3.org/2000/svg">
<path d="M230.705 0C233.6 0.249504 260.145 13.0086 264.756 15.0901C278.567 21.3941 292.454 27.5311 306.413 33.4995C353.186 53.103 411.702 72.2742 461.989 77.3605L462.02 241.573L461.99 287.027C461.977 303.811 462.21 317.539 459.881 334.301C456.823 356.108 450.41 377.31 440.87 397.157C409.054 464.493 337.067 509.89 270.477 537.822C257.606 543.221 244.393 547.816 231.276 552.52C228.184 552.488 210.135 545.282 206.56 543.891C154.308 523.564 103.51 495.915 63.4867 456.119C27.6364 420.705 5.4624 373.756 0.886173 323.572C-0.334036 310.363 0.0608251 296.768 0.0614189 283.472L0.0608209 225.217L0.0447933 77.1871C21.9842 75.4206 45.5179 70.085 66.7721 64.5047C124.104 49.4525 177.142 24.9507 230.705 0ZM16.1171 91.4229C15.689 105.718 16.0375 121.697 16.0417 136.091L16.0257 217.617L16.0292 280.75C16.0221 295.762 15.5008 311.208 17.1823 326.085C21.9397 368.569 40.2345 408.396 69.3651 439.684C105.234 477.774 156.321 506.424 204.484 525.77C208.159 527.246 228.107 535.182 231.144 535.622C305.112 509.913 390.152 464.774 425.74 391.372C434.934 372.185 441.149 351.71 444.172 330.651C446.241 315.594 446.003 302.306 446.009 287.221L446.008 241.37L445.987 91.4989C398.118 86.8199 350.986 67.7508 306.242 51.0533C296.788 47.5257 232.831 17.1895 230.323 17.2116C224.523 20.3952 218.437 23.014 212.472 25.863C162.295 49.8301 111.045 70.4454 57.0211 84.0197C42.1055 87.7676 31.2566 89.6647 16.1171 91.4229Z" fill="url(#paint0_linear_4072_1864)"/>
<path d="M229.681 50.3322C230.054 50.3245 230.425 50.3198 230.797 50.3174C243.67 50.2378 256.179 54.9382 265.25 64.0966C281.257 80.2579 280.286 94.3263 280.297 114.94C288.79 114.898 300.629 113.871 304.204 123.65C306.383 129.608 305.78 138.744 305.784 145.144L305.804 168.734L305.817 189.111C305.825 197.008 306.43 206.008 303.164 213.32C301.693 216.651 299.365 219.533 296.418 221.672C293.976 223.453 280.648 229.763 277.158 231.383C262.879 238.008 246.723 247.192 232.265 252.82C230.117 253.355 227.94 252.497 226.015 251.494C207.474 241.827 188.298 233.368 169.694 223.862C156.469 217.104 156.262 206.449 156.213 193.284L156.206 174.564L156.225 146.231C156.237 123.204 154.137 113.705 181.734 115.117C181.594 96.7791 180.577 82.1705 193.471 67.2608C203.063 56.1685 215.195 51.3203 229.681 50.3322ZM198.625 114.925L234.788 114.967C244.288 114.956 254.074 115.073 263.547 114.926L263.524 114.596C263.32 111.377 263.569 107.524 263.626 104.277C263.823 93.0063 261.685 83.0332 252.839 75.3533C245.824 69.263 237.2 65.6338 227.759 66.9247C217.714 68.6271 210.704 72.4427 204.534 80.8315C197.54 90.3408 198.264 103.479 198.625 114.925ZM200.233 210.696C209.448 211.878 224.124 211.09 233.823 211.118C237.757 211.127 260.223 211.722 261.949 210.19C263.402 207.073 262.023 198.916 260.71 195.686C255.009 181.662 242.082 176.874 228.071 177.641C219.079 179.064 210.296 182.15 204.776 189.862C200.733 195.512 198.604 203.892 200.233 210.696ZM233.228 171.483C243.57 170.372 251.048 161.081 249.923 150.741C248.799 140.401 239.498 132.934 229.159 134.072C218.84 135.208 211.389 144.488 212.512 154.809C213.635 165.131 222.905 172.592 233.228 171.483Z" fill="url(#paint1_linear_4072_1864)"/>
<path d="M300.492 266.029C305.324 266.163 310.307 266.095 315.153 266.085C317.314 276.531 319.875 286.892 322.832 297.142C325.064 286.736 327.933 276.756 329.691 266.202L344.129 266.093C344.442 281.811 344.43 297.806 345.021 313.504C342.274 313.351 338.613 313.539 335.802 313.605C335.923 304.924 335.487 294.599 335.441 285.714L335.239 279.474C331.829 289.467 328.723 302.916 325.569 313.531C323.423 313.549 321.278 313.622 319.136 313.75C315.395 302.455 312.594 289.996 309.245 278.494C309.373 280.117 309.474 281.736 309.412 283.363C309.028 293.425 309.116 303.483 309.119 313.552C306.242 313.463 302.843 313.585 299.929 313.616C299.901 297.656 300.468 281.934 300.492 266.029Z" fill="url(#paint2_linear_4072_1864)"/>
<path d="M136.289 265.304C146.54 265.165 153.428 269.427 154.513 280.28C155.827 293.424 156.56 311.965 139.339 314.134C127.656 315.022 121.478 309.069 120.267 297.721C118.798 283.953 119.15 267.369 136.289 265.304ZM138.956 305.591C145.344 302.933 145.044 294.128 144.986 288.313C144.917 281.435 145.466 273.853 136.386 273.773C134.019 274.652 132.421 275.766 131.611 278.253C129.338 285.234 126.893 307.034 138.956 305.591Z" fill="url(#paint3_linear_4072_1864)"/>
<path d="M368.158 265.278C378.404 264.826 385.385 270.458 386.022 280.87C386.892 295.067 388.037 312.67 369.466 314.398C358.467 314.065 352.865 308.078 351.808 297.559C350.427 283.816 351.155 267.053 368.158 265.278ZM370.822 305.506C372.199 304.979 372.555 304.822 373.787 304.023C376.264 298.824 376.206 293.361 376.312 287.717C376.427 281.563 375.851 272.653 367.252 273.802C360.912 278.138 361.716 284.934 361.56 291.89C361.477 295.586 362.076 300.277 363.956 303.474C365.497 305.999 368.36 305.813 370.822 305.506Z" fill="url(#paint4_linear_4072_1864)"/>
<path d="M326.37 329.982C345.297 328.188 346.792 342.787 346.172 357.561C345.737 367.948 342.382 376.109 331.045 378.068C320.797 379.413 313.658 373.25 312.144 363.283C310.143 350.113 309.821 333.008 326.37 329.982ZM325.289 368.802C327.257 369.498 327.564 369.636 329.68 369.727C331.235 369.303 332.952 368.995 333.768 367.441C335.947 363.268 336.214 358.173 336.204 353.554C336.197 350.115 336.237 346.385 335.228 343.073C334.075 339.287 331.353 338.557 327.909 338.23C321.189 340.15 321.378 349.347 321.362 355.042C321.347 360.314 321.825 364.599 325.289 368.802Z" fill="url(#paint5_linear_4072_1864)"/>
<path d="M206.979 330.762C214.176 330.793 227.51 329.692 233.207 334.479C242.536 342.318 241.749 363.294 234.546 372.212C226.735 379.041 216.718 377.546 206.922 377.319C206.608 362.453 206.75 345.661 206.979 330.762ZM216.199 369.047C220.336 369.113 223.937 369.602 227.134 366.444C229.207 362.8 229.733 359.512 229.845 355.364C230.164 343.549 229.319 338.462 216.218 338.784C216.153 348.872 216.147 358.96 216.199 369.047Z" fill="url(#paint6_linear_4072_1864)"/>
<path d="M212.919 391.488C223.527 392.021 227.28 397.246 227.869 407.533C228.56 419.586 228.534 434.647 212.746 435.427C209.265 435.308 204.859 434.926 202.249 432.293C194.427 424.403 194.807 403.656 201.701 395.319C204.34 392.127 209.124 391.599 212.919 391.488ZM214.004 427.688C217.529 425.527 218.661 420.751 218.75 416.856C218.897 410.401 220.508 398.424 210.897 399.07C205.669 402.56 206.318 408.245 206.123 413.857C205.94 419.125 206.409 428.637 214.004 427.688Z" fill="url(#paint7_linear_4072_1864)"/>
<path d="M84.0596 266.069C98.3143 266.625 117.752 262.435 114.193 285.059C113.543 289.191 110.429 291.566 107.137 293.583C110.028 300.155 112.854 306.757 115.612 313.387L105.416 313.53C103.553 309.635 99.5969 299.435 98.3304 295.458L93.5837 295.434C93.6579 301.483 93.6449 307.533 93.5439 313.582C90.4759 313.561 87.3069 313.62 84.2312 313.64C84.3945 308.71 84.1991 302.648 84.1724 297.596L84.0596 266.069ZM93.712 288.037C97.3103 287.988 100.105 288.291 103.132 286.121C105.85 282.195 105.858 278.302 102.307 274.916C98.7573 273.888 97.4154 274.007 93.6971 274.044C93.7286 278.114 93.9548 284.12 93.712 288.037Z" fill="url(#paint8_linear_4072_1864)"/>
<path d="M242.147 265.261C245.27 264.772 250.356 265.396 253.008 267.097C257.656 270.079 258.653 274.404 259.828 279.283C256.912 279.856 254 280.46 251.096 281.092C249.224 275.958 245.953 270.601 239.296 275.506C236.391 277.646 235.918 284.618 235.903 288.142C235.882 293.569 235.704 300.415 239.819 304.692C248.895 307.775 250.434 302.2 250.636 294.663C248.215 294.615 245.934 294.662 243.512 294.722L243.498 287.394L246.441 287.381L260.069 287.437C259.948 298.863 260.726 312.397 245.853 314.234C233.539 315.755 226.68 308.033 225.706 296.301C224.657 283.677 226.043 266.641 242.147 265.261Z" fill="url(#paint9_linear_4072_1864)"/>
<path d="M47.5586 266.049C60.2161 265.846 77.742 263.9 77.9545 281.651C78.0887 292.867 71.467 297.398 60.9595 297.504L57.1968 297.434C57.1973 302.825 57.2935 308.166 57.0762 313.557C54.3829 313.342 50.6308 313.514 47.8561 313.563C48.2308 308.929 47.9618 300.397 47.9885 295.471C48.052 288.828 48.0217 282.185 47.8982 275.542C47.8561 273.065 47.8887 268.389 47.5586 266.049ZM57.176 289.354C60.3497 289.275 63.3126 289.47 65.9793 287.543C67.6104 285.099 68.1668 282.99 67.6407 280.011C67.456 278.963 67.1662 277.938 66.7755 276.949C63.4801 273.995 61.4286 274.27 57.0608 274.146C57.1006 279.021 56.9973 284.533 57.176 289.354Z" fill="url(#paint10_linear_4072_1864)"/>
<path d="M254.689 330.766C258.802 330.798 262.917 330.805 267.03 330.787C270.746 346.431 275.464 361.822 279.18 377.355C276.077 377.342 272.614 377.244 269.549 377.49C269.066 375.755 267.631 369.05 266.921 368.104C262.973 367.772 258.699 368.238 254.588 367.877C253.824 371.037 253.201 374.192 252.404 377.413C249.691 377.281 245.533 377.142 242.905 377.314C243.271 375.252 243.858 372.801 244.424 370.761C248.077 357.572 251.04 343.924 254.689 330.766ZM256.308 360.181L261.336 360.198L265.694 360.153C265.05 357.788 261.655 342.518 260.82 341.647C259.235 347.805 257.731 353.983 256.308 360.181Z" fill="url(#paint11_linear_4072_1864)"/>
<path d="M139.576 330.714C142.687 330.672 145.937 330.754 149.059 330.785L149.072 339.525C149.033 347.48 150.632 367.409 145.878 373.279C143.391 376.351 139.69 377.655 135.869 378.034C131.199 378.497 125.549 378.051 121.848 374.888C120.302 373.57 119.162 371.84 118.561 369.899C116.164 362.17 117.97 340.193 117.364 330.787L126.707 330.711C126.791 340.177 126.479 349.565 126.562 359.061C126.599 363.282 126.985 369.846 133.102 369.687C142.063 369.456 138.721 359.182 139.08 353.918C139.61 346.144 139.578 338.593 139.576 330.714Z" fill="url(#paint12_linear_4072_1864)"/>
<path d="M235.24 392.032C237.499 392.216 241.381 392.104 243.781 392.12C247.92 400.607 252.246 409.185 255.945 417.856C256.158 409.65 256.002 400.429 255.914 392.17C258.597 392.249 261.558 392.169 264.262 392.152C264.259 396.341 264.525 433.707 263.904 434.912L263.141 435.006C260.72 435.068 258.3 435.085 255.879 435.055C253.011 428.694 249.238 422.495 246.444 416.055C245.434 413.728 244.217 411.247 242.986 409.03C243.616 415.14 243.055 428.263 243.102 435.079C240.471 435.061 237.756 435.124 235.118 435.151L235.071 410.147C235.031 403.512 234.819 398.691 235.24 392.032Z" fill="url(#paint13_linear_4072_1864)"/>
<path d="M133.349 392.085C145.232 392.977 162.051 388.637 160.239 407.879C159.792 412.621 157.615 414.585 154.162 417.36C156.55 423.595 158.575 428.946 161.512 434.978C158.826 434.87 156.153 435.008 153.478 434.909C152.335 434.867 152.523 434.909 151.975 434.255C149.865 429.118 148.081 424.168 146.207 418.95L142.192 418.978L142.221 435.008C139.095 434.711 136.703 434.759 133.59 434.947C133.775 424.378 133.453 413.717 133.533 403.141C133.561 399.483 133.515 395.738 133.349 392.085ZM142.218 412.206C145.315 412.122 147.733 412.353 150.243 410.361C154.201 402.293 150.122 399.769 142.249 399.851L142.218 412.206Z" fill="url(#paint14_linear_4072_1864)"/>
<path d="M406.037 265.268C415.66 265.436 419.259 269.358 420.467 278.673C417.618 279.054 414.828 279.04 411.906 279.411C410.534 276.223 409.171 273.494 405.183 273.355C402.519 273.352 400.343 275.708 400.695 278.335C401.149 282.314 405.103 284.208 408.514 285.363C415.569 287.751 420.576 290.97 421.142 299.186C421.599 305.825 419.923 310.454 413.211 313.015C410.159 314.18 408.519 314.142 405.252 314.318C395.19 313.832 392.044 309.605 390.465 300.216C393.578 300.238 396.675 300.059 399.784 299.913C400.187 301.999 400.332 302.941 401.868 304.475C403.933 306.537 407.626 307.548 409.801 305.135C410.735 304.098 411.444 301.802 411.251 300.455C410.683 296.365 406.664 294.585 403.227 293.374C397.159 291.235 391.364 287.962 391.027 280.727C390.847 276.877 391.756 272.35 394.414 269.409C397.446 266.053 401.816 265.521 406.037 265.268Z" fill="url(#paint15_linear_4072_1864)"/>
<path d="M168.086 330.011C171.809 329.794 176.178 329.851 179.381 331.973C183.772 334.882 184.121 338.817 185.094 343.34C182.225 343.539 179.284 343.63 176.391 343.815C175.114 340.734 173.202 337.069 169.111 337.861C167.817 338.112 166.686 338.887 165.986 340.003C161.786 346.606 175.353 349.992 179.275 352.573C186.504 357.33 187.323 367.956 181.849 374.197C179.574 376.791 175.263 377.732 171.989 378.192C161.519 378.977 156.65 374.054 154.873 364.145C157.866 364.148 161.152 363.903 164.163 363.739C165 367.402 166.817 370.695 171.338 370.481C172.221 370.439 173.537 369.707 173.974 368.903C179.332 359.054 166.939 358.441 161.368 354.624C158.721 352.909 156.34 350.374 155.945 347.038C154.784 337.216 158.107 331.508 168.086 330.011Z" fill="url(#paint16_linear_4072_1864)"/>
<path d="M363.823 329.951C374.776 329.158 379.227 332.378 381.136 343.178C378.361 343.345 375.254 343.688 372.422 343.906C371.193 340.352 369.5 337.661 365.033 337.71C364.121 337.72 362.735 338.412 362.31 339.231C358.038 347.363 369.15 349.019 374.491 351.985C381.564 355.913 383.302 365.505 379.358 372.286C377.329 375.774 373.191 377.172 369.324 378.001C358.658 379.448 352.217 374.99 351.101 364.078L360.09 364.027C360.578 365.647 361.001 367.319 362.286 368.506C366.64 372.533 372.526 369.89 371.257 363.728C370.598 360.199 366.836 358.681 363.872 357.565C357.113 355.021 351.748 352.127 351.76 343.993C351.772 335.584 355.67 331.357 363.823 329.951Z" fill="url(#paint17_linear_4072_1864)"/>
<path d="M194.78 266.032L220.628 266.048C220.589 269.021 220.486 271.993 220.318 274.962C217.838 274.355 207.409 274.624 204.237 274.647C204.312 278.813 204.402 281.327 204.256 285.624C209.01 285.716 213.765 285.747 218.519 285.716C218.42 288.289 218.507 291.252 218.522 293.854C213.643 293.599 209.17 293.702 204.311 293.968L204.301 298.925L204.297 304.962L220.902 304.937L220.969 313.825C212.977 313.847 202.081 313.352 194.544 313.755C194.991 308.962 194.721 301.339 194.717 296.28L194.78 266.032Z" fill="url(#paint18_linear_4072_1864)"/>
<path d="M280.362 391.921C283.231 392.192 288.328 392.017 291.429 392.066C294.844 406.259 299.029 420.465 302.471 434.948C299.65 434.859 296.29 434.954 293.43 434.967L291.38 426.574C288.243 426.759 283.416 426.618 280.149 426.628C279.895 428.6 278.81 433.103 278.232 435.012C275.177 434.709 272.652 434.702 269.599 434.68C270.052 431.721 270.949 428.269 271.759 425.379C274.864 414.295 277.314 403.009 280.362 391.921ZM285.482 418.999C286.769 418.982 288.38 419.008 289.631 418.862C288.942 415.709 286.977 404.885 285.685 402.807C284.441 408.255 283.153 413.694 281.825 419.122C283.144 419.037 284.163 418.982 285.482 418.999Z" fill="url(#paint19_linear_4072_1864)"/>
<path d="M267.813 266.023C276.233 266.12 284.655 266.119 293.076 266.021L293.052 274.661C287.82 274.551 282.549 274.689 277.274 274.558C277.082 278.196 277.182 282.016 277.212 285.67C281.868 285.768 286.684 285.712 291.352 285.695C291.428 288.534 291.397 291.002 291.321 293.829C288.37 293.514 280.385 293.697 277.128 293.69L277.088 299.479C277.104 301.298 277.059 303.182 277.041 305.007L293.938 304.989C293.874 307.778 293.931 310.75 293.936 313.555C285.252 313.741 276.567 313.75 267.883 313.581C267.546 297.769 267.851 281.836 267.813 266.023Z" fill="url(#paint20_linear_4072_1864)"/>
<path d="M72.3003 392.081C79.3152 392.055 88.4522 390.798 94.3228 395.536C99.8182 399.972 100.12 410.914 95.5193 416.105C92.5563 419.448 88.2372 420.286 83.9698 420.447C82.8333 420.423 82.3155 420.449 81.1826 420.566C80.4226 421.34 80.7467 432.948 80.7568 434.898L72.1774 434.965C72.4743 432.086 72.2552 426.765 72.2326 423.686L72.0937 402.697C72.0794 400.065 71.9381 394.499 72.3003 392.081ZM80.8026 413.375C83.4573 413.196 86.124 413.173 88.315 411.479C93.2534 403.976 88.1624 400.231 80.7687 399.629C80.7758 404.178 80.7295 408.836 80.8026 413.375Z" fill="url(#paint21_linear_4072_1864)"/>
<path d="M376.104 391.458C385.288 391.001 388.013 395.189 389.595 403.48C387.177 403.609 384.261 403.688 381.902 404.022C381.406 402.964 380.745 401.315 379.908 400.537C376.161 397.052 371.247 398.339 372.463 404.07C373.113 407.129 376.625 408.656 379.265 409.603C385.024 411.655 389.248 414.832 389.964 421.309C391.018 430.836 385.696 434.771 377.113 435.548C367.286 435.2 364.438 432.467 362.644 422.899L371.184 422.601C371.907 425.829 373.052 428.235 377.042 428.43C377.932 428.473 379.322 427.818 379.798 427.021C384.756 418.701 373.219 417.275 367.976 413.553C361.641 409.054 362.005 398.972 367.751 394.165C369.908 392.359 373.213 391.773 376.104 391.458Z" fill="url(#paint22_linear_4072_1864)"/>
<path d="M177.875 391.436C187.793 390.8 189.981 394.854 192.3 403.471C189.72 403.649 187.053 403.871 184.475 403.969C182.93 400.406 179.44 396.228 175.172 400.306C174.635 400.818 174.38 402.342 174.55 403.082C176.233 409.003 183.229 409.023 187.927 412.698C193.871 417.346 193.801 425.44 189.808 431.352C187.867 434.226 183.187 435.148 179.694 435.37C170.274 435.123 166.695 432.849 165.293 423.039C168.024 422.861 170.67 422.782 173.438 422.574C173.987 424.3 174.42 426.096 175.895 427.223C179.773 430.186 184.507 427.157 183.178 422.376C181.594 417.188 175.476 416.845 171.137 414.055C164.751 409.947 164.744 401.796 168.423 395.84C170.284 392.829 174.451 391.944 177.875 391.436Z" fill="url(#paint23_linear_4072_1864)"/>
<path d="M104.663 392.05C110.179 392.47 120.566 392.156 126.482 392.176C126.467 394.73 126.438 397.285 126.395 399.838C121.964 399.649 117.526 399.677 113.098 399.92C113.009 402.985 113.061 406.394 113.051 409.481C115.528 409.507 123.022 408.977 124.294 409.632C125.529 411.165 125.089 414.981 125.037 417.137C121.088 417.03 116.896 417.114 112.924 417.135L113.051 423.767L113.124 426.961C117.798 427.003 122.472 427.002 127.146 426.958C127.107 429.616 127.226 432.319 127.309 434.98L104.512 434.903L104.507 406.205C104.502 402.915 104.302 394.868 104.663 392.05Z" fill="url(#paint24_linear_4072_1864)"/>
<path d="M335.234 392.126C342.29 392.331 350.069 392.168 357.178 392.138C357.087 394.619 357.161 397.43 357.17 399.935C352.829 399.816 348.169 399.904 343.804 399.913C343.834 403.092 343.825 406.27 343.776 409.449C347.714 409.471 351.798 409.559 355.72 409.371L355.74 417.138L343.808 417.042L343.803 424.954C343.788 425.886 343.713 425.958 344.053 426.801C346.357 427.387 354.881 427.071 357.766 427.019C357.712 429.617 357.771 432.41 357.777 435.025C350.267 434.961 342.756 434.976 335.246 435.072C335.773 427.43 335.207 418.756 335.273 411.009C335.326 404.826 335.48 398.269 335.234 392.126Z" fill="url(#paint25_linear_4072_1864)"/>
<path d="M158.555 265.987C169.051 266.176 179.55 266.188 190.047 266.025L190.03 274.567C186.441 274.547 182.851 274.558 179.263 274.598L179.304 303.527L179.296 313.531C176.049 313.55 172.803 313.589 169.557 313.649C170.014 301.618 169.674 286.601 169.568 274.498C166.081 274.614 162.091 274.528 158.565 274.536C158.63 271.686 158.626 268.836 158.555 265.987Z" fill="url(#paint26_linear_4072_1864)"/>
<path d="M80.7236 330.824C91.0571 330.936 101.391 330.936 111.725 330.825C111.722 333.498 111.701 336.171 111.663 338.843L101 338.855C100.797 347.653 100.854 358.767 101.136 367.506L101.071 377.383L91.6343 377.351C91.0452 366.246 91.4377 350.06 91.6372 338.764L80.9012 338.772C80.9 336.053 80.9113 333.545 80.7236 330.824Z" fill="url(#paint27_linear_4072_1864)"/>
<path d="M277.889 330.761C286.753 331.191 300.193 331.168 309.109 330.811C308.65 333.607 308.773 336.025 308.804 338.835L297.782 338.821L297.724 364.905L297.702 377.379C294.71 377.364 291.718 377.37 288.727 377.395C288.502 373.216 288.643 367.907 288.645 363.654C288.672 355.395 288.657 347.136 288.6 338.877C285.226 338.738 281.227 338.829 277.804 338.83C277.863 336.14 277.892 333.451 277.889 330.761Z" fill="url(#paint28_linear_4072_1864)"/>
<path d="M307.642 392.119C310.156 392.279 313.894 392.209 316.512 392.227C316.455 403.812 316.469 415.398 316.557 426.983C320.954 426.998 325.351 426.986 329.747 426.948L329.79 435.1C323.111 434.797 314.56 435.019 307.731 435.032C307.585 420.728 307.556 406.423 307.642 392.119Z" fill="url(#paint29_linear_4072_1864)"/>
<defs>
<linearGradient id="paint0_linear_4072_1864" x1="231.01" y1="0" x2="231.01" y2="552.52" gradientUnits="userSpaceOnUse">
<stop stop-color="#979797"/>
<stop offset="1" stop-color="#CBCBCB"/>
</linearGradient>
<linearGradient id="paint1_linear_4072_1864" x1="231.029" y1="50.3164" x2="231.029" y2="252.984" gradientUnits="userSpaceOnUse">
<stop stop-color="#979797"/>
<stop offset="1" stop-color="#CBCBCB"/>
</linearGradient>
<linearGradient id="paint2_linear_4072_1864" x1="322.474" y1="266.029" x2="322.474" y2="313.75" gradientUnits="userSpaceOnUse">
<stop stop-color="#979797"/>
<stop offset="1" stop-color="#CBCBCB"/>
</linearGradient>
<linearGradient id="paint3_linear_4072_1864" x1="137.42" y1="265.301" x2="137.42" y2="314.221" gradientUnits="userSpaceOnUse">
<stop stop-color="#979797"/>
<stop offset="1" stop-color="#CBCBCB"/>
</linearGradient>
<linearGradient id="paint4_linear_4072_1864" x1="368.885" y1="265.253" x2="368.885" y2="314.398" gradientUnits="userSpaceOnUse">
<stop stop-color="#979797"/>
<stop offset="1" stop-color="#CBCBCB"/>
</linearGradient>
<linearGradient id="paint5_linear_4072_1864" x1="328.735" y1="329.832" x2="328.735" y2="378.252" gradientUnits="userSpaceOnUse">
<stop stop-color="#979797"/>
<stop offset="1" stop-color="#CBCBCB"/>
</linearGradient>
<linearGradient id="paint6_linear_4072_1864" x1="223.409" y1="330.674" x2="223.409" y2="377.613" gradientUnits="userSpaceOnUse">
<stop stop-color="#979797"/>
<stop offset="1" stop-color="#CBCBCB"/>
</linearGradient>
<linearGradient id="paint7_linear_4072_1864" x1="212.271" y1="391.488" x2="212.271" y2="435.427" gradientUnits="userSpaceOnUse">
<stop stop-color="#979797"/>
<stop offset="1" stop-color="#CBCBCB"/>
</linearGradient>
<linearGradient id="paint8_linear_4072_1864" x1="99.8359" y1="266.069" x2="99.8359" y2="313.64" gradientUnits="userSpaceOnUse">
<stop stop-color="#979797"/>
<stop offset="1" stop-color="#CBCBCB"/>
</linearGradient>
<linearGradient id="paint9_linear_4072_1864" x1="242.754" y1="265.1" x2="242.754" y2="314.425" gradientUnits="userSpaceOnUse">
<stop stop-color="#979797"/>
<stop offset="1" stop-color="#CBCBCB"/>
</linearGradient>
<linearGradient id="paint10_linear_4072_1864" x1="62.7576" y1="265.889" x2="62.7576" y2="313.563" gradientUnits="userSpaceOnUse">
<stop stop-color="#979797"/>
<stop offset="1" stop-color="#CBCBCB"/>
</linearGradient>
<linearGradient id="paint11_linear_4072_1864" x1="261.043" y1="330.766" x2="261.043" y2="377.49" gradientUnits="userSpaceOnUse">
<stop stop-color="#979797"/>
<stop offset="1" stop-color="#CBCBCB"/>
</linearGradient>
<linearGradient id="paint12_linear_4072_1864" x1="133.287" y1="330.702" x2="133.287" y2="378.189" gradientUnits="userSpaceOnUse">
<stop stop-color="#979797"/>
<stop offset="1" stop-color="#CBCBCB"/>
</linearGradient>
<linearGradient id="paint13_linear_4072_1864" x1="249.649" y1="392.032" x2="249.649" y2="435.151" gradientUnits="userSpaceOnUse">
<stop stop-color="#979797"/>
<stop offset="1" stop-color="#CBCBCB"/>
</linearGradient>
<linearGradient id="paint14_linear_4072_1864" x1="147.43" y1="392.085" x2="147.43" y2="435.008" gradientUnits="userSpaceOnUse">
<stop stop-color="#979797"/>
<stop offset="1" stop-color="#CBCBCB"/>
</linearGradient>
<linearGradient id="paint15_linear_4072_1864" x1="405.839" y1="265.268" x2="405.839" y2="314.318" gradientUnits="userSpaceOnUse">
<stop stop-color="#979797"/>
<stop offset="1" stop-color="#CBCBCB"/>
</linearGradient>
<linearGradient id="paint16_linear_4072_1864" x1="170.142" y1="329.927" x2="170.142" y2="378.273" gradientUnits="userSpaceOnUse">
<stop stop-color="#979797"/>
<stop offset="1" stop-color="#CBCBCB"/>
</linearGradient>
<linearGradient id="paint17_linear_4072_1864" x1="366.263" y1="329.837" x2="366.263" y2="378.266" gradientUnits="userSpaceOnUse">
<stop stop-color="#979797"/>
<stop offset="1" stop-color="#CBCBCB"/>
</linearGradient>
<linearGradient id="paint18_linear_4072_1864" x1="207.756" y1="266.032" x2="207.756" y2="313.825" gradientUnits="userSpaceOnUse">
<stop stop-color="#979797"/>
<stop offset="1" stop-color="#CBCBCB"/>
</linearGradient>
<linearGradient id="paint19_linear_4072_1864" x1="286.035" y1="391.921" x2="286.035" y2="435.012" gradientUnits="userSpaceOnUse">
<stop stop-color="#979797"/>
<stop offset="1" stop-color="#CBCBCB"/>
</linearGradient>
<linearGradient id="paint20_linear_4072_1864" x1="280.83" y1="266.021" x2="280.83" y2="313.701" gradientUnits="userSpaceOnUse">
<stop stop-color="#979797"/>
<stop offset="1" stop-color="#CBCBCB"/>
</linearGradient>
<linearGradient id="paint21_linear_4072_1864" x1="85.3914" y1="391.911" x2="85.3914" y2="434.965" gradientUnits="userSpaceOnUse">
<stop stop-color="#979797"/>
<stop offset="1" stop-color="#CBCBCB"/>
</linearGradient>
<linearGradient id="paint22_linear_4072_1864" x1="376.37" y1="391.424" x2="376.37" y2="435.548" gradientUnits="userSpaceOnUse">
<stop stop-color="#979797"/>
<stop offset="1" stop-color="#CBCBCB"/>
</linearGradient>
<linearGradient id="paint23_linear_4072_1864" x1="178.959" y1="391.371" x2="178.959" y2="435.37" gradientUnits="userSpaceOnUse">
<stop stop-color="#979797"/>
<stop offset="1" stop-color="#CBCBCB"/>
</linearGradient>
<linearGradient id="paint24_linear_4072_1864" x1="115.878" y1="392.05" x2="115.878" y2="434.98" gradientUnits="userSpaceOnUse">
<stop stop-color="#979797"/>
<stop offset="1" stop-color="#CBCBCB"/>
</linearGradient>
<linearGradient id="paint25_linear_4072_1864" x1="346.506" y1="392.126" x2="346.506" y2="435.072" gradientUnits="userSpaceOnUse">
<stop stop-color="#979797"/>
<stop offset="1" stop-color="#CBCBCB"/>
</linearGradient>
<linearGradient id="paint26_linear_4072_1864" x1="174.301" y1="265.987" x2="174.301" y2="313.649" gradientUnits="userSpaceOnUse">
<stop stop-color="#979797"/>
<stop offset="1" stop-color="#CBCBCB"/>
</linearGradient>
<linearGradient id="paint27_linear_4072_1864" x1="96.2241" y1="330.824" x2="96.2241" y2="377.383" gradientUnits="userSpaceOnUse">
<stop stop-color="#979797"/>
<stop offset="1" stop-color="#CBCBCB"/>
</linearGradient>
<linearGradient id="paint28_linear_4072_1864" x1="293.456" y1="330.761" x2="293.456" y2="377.395" gradientUnits="userSpaceOnUse">
<stop stop-color="#979797"/>
<stop offset="1" stop-color="#CBCBCB"/>
</linearGradient>
<linearGradient id="paint29_linear_4072_1864" x1="318.692" y1="392.119" x2="318.692" y2="435.1" gradientUnits="userSpaceOnUse">
<stop stop-color="#979797"/>
<stop offset="1" stop-color="#CBCBCB"/>
</linearGradient>
</defs>
</svg>
