<svg width="825" height="267" viewBox="0 0 825 267" fill="none" xmlns="http://www.w3.org/2000/svg">
<path d="M368.354 2.55083C370.463 2.29383 373.422 2.33183 375.417 2.97383C392.703 8.53783 384.623 33.8698 381.372 45.4338C387.13 44.6308 392.862 43.6498 398.559 42.4908C401.146 34.9188 403.923 27.2458 406 19.5368C406.941 16.0408 404.649 8.38285 411.256 9.33385C425.299 11.3538 422.698 27.4878 421.911 37.6538C432.248 36.2058 449.433 34.3238 455.082 45.7788C456.321 48.2908 457.031 49.9168 455.574 52.6088C451.867 54.1518 447.84 50.8648 443.996 50.5608C435.867 49.9168 427.444 50.9988 419.528 52.4628C415.45 63.7068 399.265 127.641 409.301 132.834C414.677 133.216 417.915 128.033 421.359 124.659C434.873 111.425 435.029 91.2508 440.612 74.2408C442.162 69.5198 447.761 58.7338 453.485 62.9568C471.89 76.5378 448.977 107.475 452.898 125.076C452.956 125.334 454.079 126.481 454.495 126.275C465.146 124.436 476.168 100.278 479.199 91.4498C481.944 83.4548 481.561 68.5568 487.174 61.6898C488.558 60.5298 491.033 60.0928 492.772 60.4448C507.431 63.3558 502.441 88.6428 500.549 99.3028C494.75 131.98 492.471 193.208 448.136 195.791C433.222 196.66 419.427 187.714 426.635 171.899C430.979 162.368 444.271 156.433 453.041 151.958C460.02 148.574 468.237 144.461 473.451 138.739C474.7 133.278 475.458 127.281 476.282 121.706C462.939 144.389 450.252 156.086 432.179 128.871C427.267 135.384 420.37 146.276 412.13 147.952C392.143 152.015 388.445 135.543 385.174 121.18C379.442 129.744 369.947 144.531 360.27 148.004C342.866 154.249 332.518 140.603 327.604 126.617C322.427 136.506 308.386 157.914 295.227 144.44C288.675 137.732 288.555 122.923 288.844 113.929C281.701 125.885 272.507 143.979 256.564 143.563C243.428 143.221 239.056 128.758 240.366 117.783C242.481 100.063 251.569 80.7998 265.177 69.0158C270.376 64.6768 276.235 61.4238 283.222 62.1128C290.171 62.7988 292.728 68.3018 296.709 73.2078C297.214 70.9398 298.709 63.7808 300.498 62.7668C306.407 59.4138 314.465 66.4158 314.479 72.1968C314.507 83.5298 300.45 122.861 306.986 131.267C312.967 133.616 322.759 116.887 325.747 112.541C320.651 82.2938 336.984 14.7268 368.354 2.55083ZM360.062 133.172C368.913 126.882 376.73 116.505 382.35 107.295C386.99 99.6918 387.578 90.6488 389.539 82.1548C391.298 74.2968 393.107 66.4228 394.954 58.5608C386.405 58.1168 382.693 56.2248 380.201 47.8228C370.792 69.4048 358.513 90.1308 346.112 110.143C346.194 119.023 346.497 137.225 360.062 133.172ZM266.166 124.903C275.435 116.395 287.071 98.5548 292.106 86.8668C290.259 83.5918 288.483 79.8168 285.559 77.4668C279.426 82.8708 274.132 88.7288 270.52 96.1238C267.967 101.35 258.204 120.337 262.354 125.604C264.06 126.097 264.504 125.827 266.166 124.903ZM350.195 79.1468C355.751 69.5448 382.411 25.2528 375.391 15.9728C360.251 27.2778 352.68 60.1918 349.567 78.5378L349.891 79.2498L350.195 79.1468ZM439.049 182.44C452.53 187.941 470.307 162.872 468.303 155.723L468.077 155.517C458.577 159.218 428.696 168.41 439.049 182.44Z" fill="url(#paint0_linear_4072_946)"/>
<path d="M624.901 1.73926C639.296 2.09526 645.212 17.4113 642.581 29.6403C638.192 50.0423 618.471 63.4252 602.294 74.3602C617.046 77.8692 626.082 78.9172 640.999 77.1232C640.216 71.1132 638.261 61.8722 640.78 56.4662C642.371 53.0512 649.391 49.7882 653.187 52.0042C656.933 56.4152 651.45 62.7982 651.866 66.5292C652.723 74.2082 666.622 77.8582 672.166 83.4402C685.527 96.8942 670.559 116.979 671.093 133.108C671.156 134.999 671.545 135.565 672.768 136.571C676.853 136.742 683.178 128.379 685.734 125.568C696.785 113.416 697.781 97.7502 705.705 83.9942C710.568 75.5522 715.911 69.7583 724.211 64.5923C738.805 55.5083 754.676 63.9283 748.575 81.6573C743.561 95.5963 730.361 103.047 717.6 109.201C716.931 119.417 715.947 138.456 734.111 131.174C740.698 128.191 753.914 115.006 755.714 108.144C760.392 90.3173 767.627 70.9862 786.152 62.9262C802.7 55.7262 814.083 67.8603 805.279 84.9893C799.029 97.1483 788.834 103.628 776.494 108.083C769.756 142.621 793.645 137.409 808.224 116.857C811.292 112.532 817.344 102.332 821.828 100.762C825.953 101.625 824.414 108.966 823.747 111.847C823.032 113.695 822.27 115.525 821.463 117.335C816.13 129.024 804.214 143.965 791.552 148.208C773.401 154.29 762.075 145.721 756.19 128.892C745.467 142.684 730.929 155.314 711.793 146.85C703.938 143.375 700.174 136.266 697.45 128.495C696.032 130.697 694.585 132.879 693.107 135.041C685.588 145.948 671.822 157.81 658.467 147.779C640.079 133.967 660.197 107.402 658.786 93.1772C657.644 91.2232 655.982 90.2132 654.163 88.8062C649.801 96.7992 645.908 115.018 640.037 118.496C638.183 118.509 638.972 118.806 637.587 117.579C636.271 112.942 643.19 99.6412 644.855 94.6582C646.746 88.9982 649.039 86.1893 645.579 80.5753C633.008 99.5133 619.32 97.6483 599.058 94.8343C600.973 103.091 604.419 110.788 606.647 119.198C612.636 141.808 623.491 172.671 608.111 193.557C601.165 202.99 586.959 201.886 578.924 194.348C563.674 180.041 567.441 155.772 566.966 136.943C566.888 133.771 567.114 128.116 567.495 125.262C571.662 93.9912 581.613 3.27626 624.901 1.73926ZM592.534 103.254C590.358 112.846 590.393 124.719 589.841 134.581C589.158 146.8 588.38 159.43 589.313 171.623C589.616 175.575 590.764 181.838 594.712 183.597C596.27 183.661 596.672 183.59 597.985 182.53C601.031 176.347 603.675 167.688 602.966 160.806C601.382 145.431 599.132 116.794 592.534 103.254ZM604.098 59.8532L607.727 57.8442C618.229 50.1652 629.327 40.0293 631.389 26.4763C632.223 20.9973 632.198 17.7392 625.981 18.0182C614.707 25.6752 606.669 46.0963 604.294 58.6873C604.222 59.0743 604.156 59.4632 604.098 59.8532ZM723.173 97.7012C727.88 93.9022 745.789 80.2343 739.452 73.4673C733.324 77.9733 724.596 89.8302 722.249 96.9662L722.623 97.8062L723.173 97.7012ZM781.957 97.0682C787.869 93.1222 797.158 85.5582 798.824 78.3022C799.06 77.2752 799.152 75.8613 798.556 74.9753C798.012 74.1663 798.24 74.4542 797.365 73.8172C793.843 77.1952 780.48 92.5772 781.221 97.2752L781.957 97.0682Z" fill="url(#paint1_linear_4072_946)"/>
<path d="M779.442 183.389C791.996 183.667 813.283 190.137 820.934 200.805C831.361 215.344 813.747 235.458 801.814 242.928C753.044 273.458 688.377 267.646 633.86 260.722C607.12 257.266 580.5 252.93 554.045 247.721C545.657 246.043 537.204 243.961 528.842 242.35C501.528 237.089 474.121 233.143 446.759 227.857C401.732 219.926 354.342 216.384 308.676 215.273C272.775 214.4 215.679 220.042 185.513 240.474C181.741 243.437 176.897 249.422 172.741 251.087C167.954 253.005 157.21 244.578 155.782 239.881C155.49 238.922 155.597 237.293 156.364 236.568C167.517 226.03 183.382 219.731 196.947 212.774C263.285 183.343 332.196 182.88 402.331 197.442C425.706 202.296 449.069 208.3 472.334 213.105C488.951 215.825 505.534 218.412 522.109 221.4C536.567 224.007 551.05 227.621 565.575 229.596C592.328 233.234 619.344 234.901 646.25 236.883C682.007 239.294 718.328 241.565 753.509 233.001C786.607 224.944 787.042 212.224 779.442 183.389Z" fill="url(#paint2_linear_4072_946)"/>
<path d="M88.1829 0.683594C113.087 2.21559 108.305 34.5586 102.176 50.5156C93.1299 74.0666 80.3749 85.8216 58.0599 95.6006C59.0839 98.2996 60.5999 101.088 61.9559 103.654C75.5749 129.434 86.8149 156.744 103.008 181.062C105.047 184.123 108.732 187.779 108.765 191.483C104.637 200.113 84.8019 187.775 80.4329 182.06C61.0609 156.717 55.2399 124.399 40.1599 96.6346L36.9309 92.5776C34.1469 99.4156 32.4839 106.362 31.1559 113.613C29.7829 121.115 29.3119 144.821 24.3619 149.471C22.3589 151.352 19.6519 151.778 17.0029 151.673C13.3429 151.529 9.43818 149.697 7.05498 146.888C-1.07822 137.301 0.807079 111.17 1.98598 98.9056C3.57258 82.3996 14.0839 13.0336 25.1749 4.7916C26.3479 3.9206 27.8299 3.80059 29.2279 4.05359C32.3349 4.61459 35.4029 7.11962 37.0109 9.76862C43.2409 20.0266 38.0399 35.3766 35.5829 46.1206C34.0629 52.9576 32.4749 59.7786 30.8199 66.5836C44.4679 43.8306 58.8989 5.63959 88.1829 0.683594ZM43.6009 79.6046C60.2319 74.3476 72.8989 64.2876 80.6309 48.5206C83.5299 42.6076 94.2259 19.4536 85.9329 14.8136C70.3969 23.8066 46.5449 61.6906 41.2389 79.0546L41.5389 79.7656C42.8039 79.8336 42.4249 79.9206 43.6009 79.6046Z" fill="url(#paint3_linear_4072_946)"/>
<path d="M130.693 61.0632C150.279 59.1892 155.129 80.8292 154.574 96.0022C154.527 97.2912 155.127 97.8302 155.977 98.5612C158.706 99.1792 162.066 97.6862 164.594 96.5722C176.56 91.2992 175.7 79.1322 179.454 68.6942C180.129 66.3782 182.519 63.1382 184.989 62.7062C215.228 57.4182 182.621 120.823 191.04 124.055C198.519 122.085 213.239 100.436 215.525 90.9472C216.778 85.7472 217.624 47.7742 234.895 67.7322C239.905 76.5552 236.49 95.2012 234.758 103.933C228.631 134.826 225.418 175.08 195.589 192.577C183.65 197.423 165.792 196.682 160.398 182.892C151.426 159.955 191.086 146.362 207.179 140.28C208.666 133.787 209.195 126.626 210.834 120.529C204.169 131.28 188.022 157.59 172.59 138.678C167.374 132.286 167.556 118.549 169.039 110.616C161.569 113.342 159.308 113.712 151.328 114.513C147.825 124.955 141.031 141.665 131.282 145.675C98.893 158.998 91.664 120.672 100.217 98.6052C105.445 85.1162 107.596 80.7652 119.282 74.7102C119.796 73.2552 120.334 71.8082 120.895 70.3702C123.122 64.7622 125.588 63.2662 130.693 61.0632ZM171.884 172.836C172.398 177.147 172.373 178.893 174.613 182.676C188.534 189.734 202.159 164.317 202.586 153.452L201.996 152.505C188.843 158.146 180.128 160.863 171.884 172.836ZM131.096 124.061C134.954 119.532 136.783 116.639 139.483 111.322C133.637 107.66 130.533 105.548 126.15 100.076C125.547 99.3232 122.117 94.6482 121.852 94.3812C119.622 100.13 118.41 104.37 117.712 110.519C116.617 120.161 118.265 136.563 131.096 124.061ZM141.907 95.6452C144.283 92.2092 140.863 78.1362 137.029 75.2062C132.843 82.1292 137.721 89.9012 141.907 95.6452Z" fill="url(#paint4_linear_4072_946)"/>
<path d="M537.083 89.3008C543.685 88.5608 563.584 87.0187 562.532 97.8427C562.128 101.99 556.572 106.655 553.367 109.032C548.678 108.705 544.077 108.259 539.384 108.58C532.284 109.458 522.553 110.975 516.239 106.863C512.456 104.4 512.378 100.204 515.197 96.9008C520.395 90.8088 529.633 90.0818 537.083 89.3008Z" fill="url(#paint5_linear_4072_946)"/>
<defs>
<linearGradient id="paint0_linear_4072_946" x1="376.393" y1="17.9299" x2="430.954" y2="173.251" gradientUnits="userSpaceOnUse">
<stop stop-color="#5D5D5D"/>
<stop offset="0.427885" stop-color="#9F9F9F"/>
</linearGradient>
<linearGradient id="paint1_linear_4072_946" x1="700.502" y1="17.6787" x2="758.516" y2="175.464" gradientUnits="userSpaceOnUse">
<stop stop-color="#5D5D5D"/>
<stop offset="0.427885" stop-color="#9F9F9F"/>
</linearGradient>
<linearGradient id="paint2_linear_4072_946" x1="502.244" y1="190.04" x2="506.649" y2="264.519" gradientUnits="userSpaceOnUse">
<stop stop-color="#5D5D5D"/>
<stop offset="0.427885" stop-color="#9F9F9F"/>
</linearGradient>
<linearGradient id="paint3_linear_4072_946" x1="56.838" y1="16.2373" x2="143.203" y2="116.974" gradientUnits="userSpaceOnUse">
<stop stop-color="#5D5D5D"/>
<stop offset="0.427885" stop-color="#9F9F9F"/>
</linearGradient>
<linearGradient id="paint4_linear_4072_946" x1="169.813" y1="71.7327" x2="215.552" y2="172.056" gradientUnits="userSpaceOnUse">
<stop stop-color="#5D5D5D"/>
<stop offset="0.427885" stop-color="#9F9F9F"/>
</linearGradient>
<linearGradient id="paint5_linear_4072_946" x1="538.812" y1="90.4446" x2="542.445" y2="108.492" gradientUnits="userSpaceOnUse">
<stop stop-color="#5D5D5D"/>
<stop offset="0.427885" stop-color="#9F9F9F"/>
</linearGradient>
</defs>
</svg>
