<svg width="451" height="308" viewBox="0 0 451 308" fill="none" xmlns="http://www.w3.org/2000/svg">
<path d="M367.101 187.921C358.347 187.921 351.253 185.204 345.819 179.77C340.385 174.336 337.668 167.242 337.668 158.487V21.7359C337.668 16.0002 339.63 11.321 343.555 7.69848C347.479 4.07593 352.46 2.26465 358.498 2.26465C364.233 2.26465 368.913 4.07593 372.535 7.69848C376.46 11.321 378.422 16.0002 378.422 21.7359V137.205C378.422 146.261 382.95 150.79 392.006 150.79H432.307C437.741 150.79 442.118 152.601 445.439 156.223C449.062 159.544 450.873 163.921 450.873 169.355C450.873 174.789 449.062 179.317 445.439 182.94C442.118 186.26 437.741 187.921 432.307 187.921H367.101Z" fill="url(#paint0_linear_4072_962)"/>
<path d="M235.626 192.448C221.739 192.448 208.759 190.184 196.683 185.656C184.608 180.826 175.099 174.487 168.156 166.638C164.835 163.015 163.175 158.789 163.175 153.959C163.175 148.827 165.137 144.299 169.061 140.374C172.986 136.45 177.665 134.487 183.099 134.487C188.231 134.487 192.608 136.299 196.231 139.921C201.363 144.751 207.853 148.525 215.702 151.242C223.551 153.959 231.249 155.317 238.796 155.317C246.645 155.317 253.437 153.657 259.173 150.336C264.908 146.714 267.776 141.129 267.776 133.582C267.776 127.242 265.059 122.412 259.625 119.092C254.493 115.469 245.739 112.601 233.362 110.488C211.325 106.865 194.721 100.828 183.552 92.3752C172.382 83.6207 166.797 71.3946 166.797 55.6968C166.797 38.7916 173.288 25.3579 186.269 15.3959C199.249 5.13196 216.306 0 237.437 0C259.173 0 276.531 5.58478 289.512 16.7543C294.643 20.9806 297.209 25.9617 297.209 31.6974C297.209 36.5275 295.247 40.7538 291.323 44.3764C287.7 47.697 283.323 49.3574 278.191 49.3574C274.267 49.3574 270.644 48.3008 267.323 46.1876C255.852 38.9425 243.777 35.3199 231.098 35.3199C223.551 35.3199 217.211 36.8293 212.079 39.8481C206.947 42.8669 204.381 47.3951 204.381 53.4327C204.381 59.7722 208.306 64.7532 216.155 68.3758C224.305 71.9984 236.079 75.319 251.475 78.3378C259.927 79.8472 268.229 82.5641 276.38 86.4886C284.832 90.1111 291.776 95.6959 297.209 103.243C302.945 110.79 305.813 121.054 305.813 134.035C305.813 151.242 299.172 165.279 285.889 176.147C272.908 187.015 256.154 192.448 235.626 192.448Z" fill="url(#paint1_linear_4072_962)"/>
<path d="M72.4512 192.448C58.5647 192.448 45.5839 190.184 33.5087 185.656C21.4335 180.826 11.9243 174.487 4.98102 166.638C1.66034 163.015 0 158.789 0 153.959C0 148.827 1.96222 144.299 5.88666 140.374C9.81109 136.45 14.4902 134.487 19.9241 134.487C25.056 134.487 29.4333 136.299 33.0558 139.921C38.1878 144.751 44.6782 148.525 52.5271 151.242C60.376 153.959 68.0739 155.317 75.6209 155.317C83.4698 155.317 90.2621 153.657 95.9978 150.336C101.733 146.714 104.601 141.129 104.601 133.582C104.601 127.242 101.884 122.412 96.4506 119.092C91.3186 115.469 82.5641 112.601 70.1871 110.488C48.1498 106.865 31.5464 100.828 20.3769 92.3752C9.20734 83.6207 3.62256 71.3946 3.62256 55.6968C3.62256 38.7916 10.113 25.3579 23.0938 15.3959C36.0746 5.13196 53.1308 0 74.2624 0C95.9978 0 113.356 5.58478 126.337 16.7543C131.469 20.9806 134.035 25.9617 134.035 31.6974C134.035 36.5275 132.072 40.7538 128.148 44.3764C124.525 47.697 120.148 49.3574 115.016 49.3574C111.092 49.3574 107.469 48.3008 104.149 46.1876C92.6771 38.9425 80.6019 35.3199 67.923 35.3199C60.376 35.3199 54.0365 36.8293 48.9045 39.8481C43.7726 42.8669 41.2066 47.3951 41.2066 53.4327C41.2066 59.7722 45.131 64.7532 52.9799 68.3758C61.1307 71.9984 72.904 75.319 88.2998 78.3378C96.7525 79.8472 105.054 82.5641 113.205 86.4886C121.658 90.1111 128.601 95.6959 134.035 103.243C139.77 110.79 142.638 121.054 142.638 134.035C142.638 151.242 135.997 165.279 122.714 176.147C109.733 187.015 92.979 192.448 72.4512 192.448Z" fill="url(#paint2_linear_4072_962)"/>
<path d="M410.283 305.097C406.359 305.097 403.179 303.879 400.744 301.444C398.309 299.008 397.091 295.829 397.091 291.905V235.484C397.091 231.561 398.241 228.516 400.541 226.352C402.841 224.051 405.885 222.901 409.674 222.901H440.319C446.002 222.901 448.843 225.607 448.843 231.019C448.843 233.32 448.032 235.281 446.408 236.905C444.784 238.393 442.755 239.137 440.319 239.137H419.415C416.709 239.137 415.356 240.491 415.356 243.197V251.315C415.356 254.021 416.709 255.374 419.415 255.374H437.275C439.981 255.374 442.078 256.118 443.567 257.606C445.055 259.094 445.799 261.056 445.799 263.492C445.799 265.657 444.92 267.551 443.161 269.174C441.537 270.798 439.575 271.61 437.275 271.61H419.415C416.709 271.61 415.356 272.963 415.356 275.669V284.599C415.356 287.305 416.709 288.658 419.415 288.658H442.349C444.92 288.658 446.949 289.402 448.438 290.89C450.061 292.378 450.873 294.408 450.873 296.979C450.873 299.279 450.061 301.241 448.438 302.864C446.814 304.353 444.784 305.097 442.349 305.097H410.283Z" fill="url(#paint3_linear_4072_962)"/>
<path d="M328.923 307.126C326.488 307.126 324.39 306.314 322.632 304.691C320.873 302.932 319.993 300.902 319.993 298.602V236.093C319.993 232.17 321.211 228.99 323.646 226.554C326.217 224.119 329.6 222.901 333.794 222.901H354.089C362.342 222.901 368.972 225.337 373.978 230.208C379.12 235.078 381.69 241.167 381.69 248.473C381.69 252.803 380.54 256.862 378.24 260.65C375.94 264.439 372.625 267.483 368.296 269.783C370.19 270.73 371.881 272.016 373.369 273.639C374.993 275.263 376.278 277.225 377.226 279.525L383.923 294.949C384.599 296.573 384.938 297.926 384.938 299.008C384.938 301.444 383.991 303.473 382.096 305.097C380.202 306.585 378.105 307.329 375.805 307.329C374.317 307.329 372.828 306.923 371.34 306.112C369.987 305.3 368.905 304.014 368.093 302.255L360.381 283.787C359.028 280.54 357.201 278.24 354.901 276.887C352.736 275.398 350.165 274.654 347.189 274.654H341.912C339.206 274.654 337.853 276.007 337.853 278.713V298.602C337.853 300.902 336.973 302.932 335.215 304.691C333.456 306.314 331.358 307.126 328.923 307.126ZM340.897 259.433H353.277C356.66 259.433 359.298 258.486 361.192 256.591C363.222 254.697 364.237 252.262 364.237 249.285C364.237 246.173 363.222 243.738 361.192 241.979C359.298 240.085 356.66 239.137 353.277 239.137H340.897C338.868 239.137 337.853 240.152 337.853 242.182V256.388C337.853 258.418 338.868 259.433 340.897 259.433Z" fill="url(#paint4_linear_4072_962)"/>
<path d="M283.374 230.615C283.374 228.179 284.253 226.15 286.012 224.526C287.771 222.767 289.936 221.888 292.507 221.888C295.077 221.888 297.242 222.699 299.001 224.323C300.76 225.947 301.64 228.044 301.64 230.615V274.655C301.64 284.532 298.392 292.447 291.898 298.4C285.403 304.218 276.744 307.127 265.92 307.127C255.231 307.127 246.64 304.218 240.145 298.4C233.786 292.447 230.606 284.532 230.606 274.655V230.615C230.606 228.044 231.418 226.014 233.042 224.526C234.801 222.902 237.033 222.091 239.739 222.091C242.445 222.091 244.61 222.902 246.234 224.526C247.993 226.014 248.872 228.044 248.872 230.615V274.655C248.872 279.391 250.428 283.247 253.54 286.223C256.652 289.065 260.779 290.485 265.92 290.485C271.197 290.485 275.391 289.065 278.503 286.223C281.75 283.247 283.374 279.391 283.374 274.655V230.615Z" fill="url(#paint5_linear_4072_962)"/>
<path d="M213.349 299.62C210.778 301.65 206.854 303.409 201.577 304.897C196.301 306.385 191.159 307.129 186.153 307.129C177.764 307.129 170.255 305.303 163.625 301.65C156.996 297.861 151.786 292.652 147.998 286.022C144.21 279.393 142.315 271.884 142.315 263.495C142.315 254.7 144.142 247.123 147.795 240.764C151.584 234.405 156.793 229.534 163.422 226.152C170.052 222.634 177.764 220.875 186.559 220.875C190.212 220.875 193.865 221.213 197.518 221.89C201.307 222.566 204.757 223.649 207.869 225.137C209.492 225.949 210.642 227.031 211.319 228.384C212.131 229.602 212.537 230.955 212.537 232.443C212.537 234.608 211.725 236.638 210.101 238.532C208.613 240.291 206.583 241.17 204.013 241.17C202.93 241.17 201.78 240.967 200.563 240.561C198.127 239.614 195.489 238.87 192.647 238.329C189.806 237.652 187.303 237.314 185.138 237.314C178.103 237.314 172.217 239.682 167.481 244.417C162.881 249.153 160.581 255.512 160.581 263.495C160.581 272.019 162.949 278.716 167.684 283.587C172.555 288.458 178.779 290.893 186.356 290.893C189.468 290.893 192.783 290.352 196.301 289.27C199.818 288.187 202.66 286.834 204.825 285.211C206.313 284.264 207.936 283.79 209.695 283.79C211.995 283.79 213.822 284.602 215.175 286.225C216.663 287.714 217.408 289.608 217.408 291.908C217.408 294.885 216.055 297.455 213.349 299.62Z" fill="url(#paint6_linear_4072_962)"/>
<path d="M91.5854 305.097C87.6617 305.097 84.4821 303.879 82.0467 301.444C79.6113 299.008 78.3936 295.829 78.3936 291.905V235.484C78.3936 231.561 79.5436 228.516 81.8437 226.352C84.1439 224.051 87.1881 222.901 90.9766 222.901H121.622C127.305 222.901 130.146 225.607 130.146 231.019C130.146 233.32 129.334 235.281 127.711 236.905C126.087 238.393 124.058 239.137 121.622 239.137H100.718C98.0122 239.137 96.6592 240.491 96.6592 243.197V251.315C96.6592 254.021 98.0122 255.374 100.718 255.374H118.578C121.284 255.374 123.381 256.118 124.869 257.606C126.358 259.094 127.102 261.056 127.102 263.492C127.102 265.657 126.222 267.551 124.464 269.174C122.84 270.798 120.878 271.61 118.578 271.61H100.718C98.0122 271.61 96.6592 272.963 96.6592 275.669V284.599C96.6592 287.305 98.0122 288.658 100.718 288.658H123.652C126.222 288.658 128.252 289.402 129.74 290.89C131.364 292.378 132.176 294.408 132.176 296.979C132.176 299.279 131.364 301.241 129.74 302.864C128.117 304.353 126.087 305.097 123.652 305.097H91.5854Z" fill="url(#paint7_linear_4072_962)"/>
<path d="M32.6578 307.129C26.434 307.129 20.616 306.115 15.204 304.085C9.79192 301.92 5.52994 299.079 2.41801 295.561C0.929703 293.938 0.185547 292.043 0.185547 289.879C0.185547 287.578 1.065 285.549 2.82392 283.79C4.58283 282.031 6.68 281.152 9.11542 281.152C11.4155 281.152 13.3774 281.963 15.001 283.587C17.3011 285.752 20.2101 287.443 23.7279 288.661C27.2458 289.879 30.6959 290.487 34.0785 290.487C37.5963 290.487 40.6406 289.743 43.2113 288.255C45.782 286.631 47.0674 284.128 47.0674 280.746C47.0674 277.904 45.8497 275.74 43.4142 274.251C41.1141 272.628 37.1904 271.342 31.643 270.395C21.7661 268.772 14.3245 266.066 9.31837 262.277C4.31223 258.353 1.80916 252.874 1.80916 245.838C1.80916 238.261 4.71813 232.24 10.5361 227.775C16.354 223.175 23.9985 220.875 33.4696 220.875C43.2113 220.875 50.9911 223.378 56.8091 228.384C59.1092 230.278 60.2592 232.511 60.2592 235.082C60.2592 237.246 59.3798 239.141 57.6208 240.764C55.9972 242.253 54.0354 242.997 51.7353 242.997C49.9763 242.997 48.3527 242.523 46.8644 241.576C41.723 238.329 36.3109 236.705 30.6283 236.705C27.2458 236.705 24.4044 237.382 22.1043 238.735C19.8042 240.088 18.6541 242.117 18.6541 244.823C18.6541 247.665 20.4131 249.897 23.9309 251.521C27.584 253.144 32.8608 254.633 39.7611 255.986C43.5495 256.662 47.2703 257.88 50.9235 259.639C54.7119 261.262 57.8238 263.765 60.2592 267.148C62.8299 270.53 64.1153 275.131 64.1153 280.949C64.1153 288.661 61.1387 294.952 55.1854 299.823C49.3675 304.694 41.8583 307.129 32.6578 307.129Z" fill="url(#paint8_linear_4072_962)"/>
<defs>
<linearGradient id="paint0_linear_4072_962" x1="394.27" y1="2.26465" x2="394.27" y2="187.921" gradientUnits="userSpaceOnUse">
<stop offset="0.123151" stop-color="#B1B1B1"/>
<stop offset="0.620192" stop-color="#666666"/>
</linearGradient>
<linearGradient id="paint1_linear_4072_962" x1="234.494" y1="0" x2="234.494" y2="192.448" gradientUnits="userSpaceOnUse">
<stop offset="0.123151" stop-color="#B1B1B1"/>
<stop offset="0.620192" stop-color="#666666"/>
</linearGradient>
<linearGradient id="paint2_linear_4072_962" x1="71.3191" y1="0" x2="71.3191" y2="192.448" gradientUnits="userSpaceOnUse">
<stop offset="0.123151" stop-color="#B1B1B1"/>
<stop offset="0.620192" stop-color="#666666"/>
</linearGradient>
<linearGradient id="paint3_linear_4072_962" x1="423.982" y1="222.901" x2="423.982" y2="305.097" gradientUnits="userSpaceOnUse">
<stop offset="0.123151" stop-color="#B1B1B1"/>
<stop offset="0.620192" stop-color="#666666"/>
</linearGradient>
<linearGradient id="paint4_linear_4072_962" x1="352.465" y1="222.901" x2="352.465" y2="307.329" gradientUnits="userSpaceOnUse">
<stop offset="0.123151" stop-color="#B1B1B1"/>
<stop offset="0.620192" stop-color="#666666"/>
</linearGradient>
<linearGradient id="paint5_linear_4072_962" x1="266.123" y1="221.888" x2="266.123" y2="307.127" gradientUnits="userSpaceOnUse">
<stop offset="0.123151" stop-color="#B1B1B1"/>
<stop offset="0.620192" stop-color="#666666"/>
</linearGradient>
<linearGradient id="paint6_linear_4072_962" x1="179.861" y1="220.875" x2="179.861" y2="307.129" gradientUnits="userSpaceOnUse">
<stop offset="0.123151" stop-color="#B1B1B1"/>
<stop offset="0.620192" stop-color="#666666"/>
</linearGradient>
<linearGradient id="paint7_linear_4072_962" x1="105.285" y1="222.901" x2="105.285" y2="305.097" gradientUnits="userSpaceOnUse">
<stop offset="0.123151" stop-color="#B1B1B1"/>
<stop offset="0.620192" stop-color="#666666"/>
</linearGradient>
<linearGradient id="paint8_linear_4072_962" x1="32.1504" y1="220.875" x2="32.1504" y2="307.129" gradientUnits="userSpaceOnUse">
<stop offset="0.123151" stop-color="#B1B1B1"/>
<stop offset="0.620192" stop-color="#666666"/>
</linearGradient>
</defs>
</svg>
